# xmcd CD database file
#
# Track frame offsets:
#	150
#	14334
#	23590
#	36128
#	46518
#	59234
#	67988
#	82085
#	91871
#	102000
#	112785
#	124690
#	134467
#	142394
#	152433
#	161436
#	171819
#	182158
#	192187
#	204200
#	213269
#	223176
#	235316
#	245339
#
# Disc length: 3422 seconds
#
# Revision: 0
# Processed by: cddbd v1.5.2PL0 Copyright (c) Steve Scherf et al.
# Submitted via: CDex 1.72
#
DISCID=450d5c18
DTITLE=Wanda Jackson - Before The Music Died - The Complete Recordings 1954-1962 Disc One
DYEAR=2013
DGENRE=Country
TTITLE0=01 - Day Dreaming
TTITLE1=02 - I Wanna Waltz
TTITLE2=03 - Heartbreak Ahead
TTITLE3=04 - Makin' Believe
TTITLE4=05 - Here We Are Again
TTITLE5=06 - Long Tall Sally
TTITLE6=07 - Just Call Me Lonesome
TTITLE7=08 - Let Me Go Lover
TTITLE8=09 - Money Honey
TTITLE9=10 - I Can't Make My Dreams Understand
TTITLE10=11 - Happy Happy Birthday Baby
TTITLE11=12 - Let's Have A Party
TTITLE12=13 - Rock Your Baby
TTITLE13=14 - Fujiyama Mama
TTITLE14=15 - You're The One For Me
TTITLE15=16 - Did You Miss Me
TTITLE16=17 - Cool Love
TTITLE17=18 - Honey Bop
TTITLE18=19 - Hot Dog! That Made Him Mad
TTITLE19=20 - Baby Loves Him
TTITLE20=21 - Mean Mean Man
TTITLE21=22 - You've Turned To A Stranger
TTITLE22=23 - Don'a Wan'a
TTITLE23=24 - I Gotta Know
EXTD=YEAR: 2013
EXTT0=
EXTT1=
EXTT2=
EXTT3=
EXTT4=
EXTT5=
EXTT6=
EXTT7=
EXTT8=
EXTT9=
EXTT10=
EXTT11=
EXTT12=
EXTT13=
EXTT14=
EXTT15=
EXTT16=
EXTT17=
EXTT18=
EXTT19=
EXTT20=
EXTT21=
EXTT22=
EXTT23=
PLAYORDER=
